<?xml version="1.0" standalone="no"?>
<!DOCTYPE svg PUBLIC "-//W3C//DTD SVG 1.1//EN" "http://www.w3.org/Graphics/SVG/1.1/DTD/svg11.dtd" >
<svg xmlns="http://www.w3.org/2000/svg">
<metadata>Generated by IcoMoon</metadata>
<defs>
<font id="icomoon" horiz-adv-x="512">
<font-face units-per-em="512" ascent="480" descent="-32" />
<missing-glyph horiz-adv-x="512" />
<glyph unicode="&#x20;" horiz-adv-x="256" d="" />
<glyph unicode="&#x3c;" glyph-name="chevron-left" d="M213.7 224v0 0l167.2 174.1c4.2 4.3 4.1 11.4-0.2 15.8l-29.9 30.6c-4.3 4.4-11.3 4.5-15.5 0.2l-204.2-212.6c-2.2-2.2-3.2-5.2-3-8.1-0.1-3 0.9-5.9 3-8.1l204.2-212.7c4.2-4.3 11.2-4.2 15.5 0.2l29.9 30.6c4.3 4.4 4.4 11.5 0.2 15.8l-167.2 174.2z" />
<glyph unicode="&#x3e;" glyph-name="chevron-right" d="M298.3 224v0 0l-167.2 174.1c-4.2 4.3-4.1 11.4 0.2 15.8l29.9 30.6c4.3 4.4 11.3 4.5 15.5 0.2l204.2-212.7c2.2-2.2 3.2-5.2 3-8.1 0.1-3-0.9-5.9-3-8.1l-204.2-212.6c-4.2-4.3-11.2-4.2-15.5 0.2l-29.9 30.6c-4.3 4.4-4.4 11.5-0.2 15.8l167.2 174.2z" />
<glyph unicode="&#x58;" glyph-name="bold-x" d="M410.336 125.44l-54.752-54.816-95.872 95.904-95.872-95.904-54.784 54.816 95.872 95.872-95.872 95.872 54.784 54.784 95.872-95.872 95.872 95.872 54.752-54.784-95.84-95.872 95.84-95.872z" />
<glyph unicode="&#x5e;" glyph-name="chevron-up" d="M256 266.3v0 0l174.2-167.2c4.3-4.2 11.4-4.1 15.8 0.2l30.6 29.9c4.4 4.3 4.5 11.3 0.2 15.5l-212.7 204.2c-2.2 2.2-5.2 3.2-8.1 3-3 0.1-5.9-0.9-8.1-3l-212.7-204.2c-4.3-4.2-4.2-11.2 0.2-15.5l30.6-29.9c4.4-4.3 11.5-4.4 15.8-0.2l174.2 167.2z" />
<glyph unicode="&#x69;" glyph-name="info" d="M256-32c-141.785 0-256 114.216-256 256s114.216 256 256 256c141.784 0 256-114.216 256-256s-114.216-256-256-256zM256 440.615c-120.123 0-216.615-96.493-216.615-216.615s96.493-216.615 216.615-216.615 216.615 96.493 216.615 216.615-96.493 216.615-216.615 216.615zM196.923 247.631h43.323v-74.831h-43.323v-27.569h112.246v27.569h-37.416v100.431h-74.831v-25.6zM240.246 290.954h33.477v33.477h-33.477v-33.477z" />
<glyph unicode="&#x76;" glyph-name="chevron-down" d="M256 181.7v0 0l174.2 167.2c4.3 4.2 11.4 4.1 15.8-0.2l30.6-29.9c4.4-4.3 4.5-11.3 0.2-15.5l-212.7-204.2c-2.2-2.2-5.2-3.2-8.1-3-3-0.1-5.9 0.9-8.1 3l-212.7 204.2c-4.3 4.2-4.2 11.2 0.2 15.5l30.6 29.9c4.4 4.3 11.5 4.4 15.8 0.2l174.2-167.2z" />
<glyph unicode="&#x78;" glyph-name="light-x" d="M430.4 57.717l-21.792-21.792-152.608 152.608-152.576-152.608-21.824 21.792 152.608 152.608-152.608 152.608 21.824 21.792 152.576-152.608 152.608 152.608 21.792-21.792-152.608-152.608 152.608-152.608z" />
<glyph unicode="&#x221a;" glyph-name="check" d="M406.304 334.496l-117.504-199.136 3.52-2.24-31.904-60.928-6.464 4.128-0.832-1.472-24.608 17.664-122.816 78.176 31.904 60.96 95.904-61.056 119.296 202.24 53.504-38.336z" />
<glyph unicode="&#xe601;" glyph-name="add-user" d="M465.261 22.897h-80.365v-80.365h-53.563v80.365h-80.365v53.563h80.365v80.365h53.563v-80.365h80.365v-53.563zM224.166 22.897h-241.219v38.484c0 0-10.977 21.127 127.921 76.927 0 0 55.717 10.563 18.269 48.053-13.919 13.919-20.92 34.962-24.4 49.834-0.912-1.077-1.947-1.781-3.023-1.781-5.054 0-9.114 12.925-9.114 28.874 0 15.907 4.059 28.832 9.114 28.832v57.705c0 0 0 48.053 63.96 48.053 6.338 0 12.427 0.083 18.269 0.166 5.841-0.083 11.889-0.166 18.269-0.166 63.96 0 63.96-48.053 63.96-48.053v-57.705c5.054 0 9.113-12.925 9.113-28.832 0-15.949-4.060-28.874-9.113-28.874-1.077 0-2.113 0.704-3.024 1.781-3.479-14.872-10.48-35.916-24.399-49.834-37.448-37.49 18.269-48.053 18.269-48.053 18.392-7.416 34.010-14.167 47.514-20.341v-14.706h-80.365v-80.365z" />
<glyph unicode="&#xe602;" glyph-name="share" d="M352 291.2c-14.784 0-28.224 5.088-39.072 13.28l-153.952-86.656c0.544-3.232 1.024-6.464 1.024-9.824s-0.48-6.624-1.024-9.824l153.952-86.688c10.848 8.224 24.288 13.312 39.072 13.312 35.36 0 64-27.936 64-62.4s-28.64-62.4-64-62.4c-35.36 0-64 27.936-64 62.4 0 3.84 0.48 7.584 1.152 11.232l-152.992 86.144c-11.008-8.736-24.864-14.176-40.16-14.176-35.36 0-64 27.936-64 62.4s28.64 62.4 64 62.4c15.296 0 29.152-5.44 40.16-14.176l152.992 86.112c-0.672 3.68-1.152 7.392-1.152 11.264 0 34.464 28.64 62.4 64 62.4s64-27.936 64-62.4c0-34.464-28.64-62.4-64-62.4z" />
<glyph unicode="&#xe603;" glyph-name="add-image" d="M409.888 312.96v-41.056h-27.392v41.056h-41.056v27.392h41.056v41.056h27.392v-41.056h41.056v-27.392h-41.056zM368.832 144.512c0-4.128 0-6.784 0-8.928h-259.040c0 0-7.488-8.192 17.28 25.216 11.264 15.168 16.512 23.168 26.24 31.872 25.376 22.784 29.76 21.696 34.176 21.056 6.208-0.96 7.936 1.664 32-29.088 15.36-19.648 18.912-17.088 18.912-17.088s-5.568-16.8 33.024 41.504c3.488 5.248 30.24 46.784 39.712 43.808 20.8-6.496 56.736-49.44 56.928-67.712 0.16-17.152 0.768-21.184 0.768-40.64zM181.312 260.256c0-14.016-11.008-25.376-24.608-25.376s-24.608 11.36-24.608 25.376c0 14.016 11.008 25.376 24.608 25.376s24.608-11.36 24.608-25.376zM95.040 121.312h287.456v136.896h27.328v-164.48h-342.304v246.656l260.224-0.032v-27.392h-232.704v-191.648z" />
<glyph unicode="&#xe604;" glyph-name="discuss" d="M449.6 316.224h-52.16v-52.16h-34.784v52.16h-52.16v34.752h52.16v52.16h34.784v-52.16h52.16v-34.752zM101.856 298.816v-121.696c0-10.432 6.976-17.376 17.408-17.376h43.456v-34.784l55.648 33.024 126.912 1.76c10.432 0 17.376 6.944 17.376 17.376v52.16h34.784v-69.536c0-19.136-15.648-34.784-34.784-34.784 0 0-81.696 0-139.072 0-12.192 0-74.784-52.16-85.216-52.16-5.216 0 1.76 52.16-3.456 52.16-19.136 0-33.056 0-33.056 0-19.104 0-34.752 15.648-34.752 34.784v156.48c0 19.104 15.648 34.752 34.752 34.752h173.888v-34.752h-156.48c-10.432 0-17.408-6.976-17.408-17.408z" />
<glyph unicode="&#xe605;" glyph-name="poll" horiz-adv-x="523" d="M413.957 120.51h-43.575c-6.014 0-10.894 4.88-10.894 10.894v185.192c0 6.013 4.88 10.893 10.894 10.893h43.575c6.014 0 10.894-4.881 10.894-10.893v-185.192c0-6.014-4.88-10.894-10.894-10.894zM283.234 120.51h-43.575c-6.013 0-10.893 4.88-10.893 10.894v337.702c0 6.014 4.881 10.894 10.893 10.894h43.575c6.014 0 10.894-4.881 10.894-10.894v-337.702c0-6.014-4.88-10.894-10.894-10.894zM152.511 120.51h-43.575c-6.013 0-10.894 4.88-10.894 10.894v261.447c0 6.014 4.88 10.894 10.894 10.894h43.575c6.013 0 10.893-4.88 10.893-10.894v-261.447c0-6.014-4.881-10.894-10.893-10.894zM0 131.404h522.894v-10.894h-522.894v10.894zM459.199-30.279h-53.716c-5.185 0-9.455 4.271-9.455 9.466v83.924c0 5.185 4.271 9.456 9.456 9.456s9.161-4.271 9.161-9.456v-75.841h44.555c4.728 0 8.693-3.813 8.693-8.693 0-4.891-3.966-8.704-8.693-8.856zM369.108-30.279h-53.716c-5.185 0-9.455 4.271-9.455 9.466v83.924c0 5.185 4.271 9.456 9.456 9.456 5.197 0 9.161-4.271 9.161-9.456v-75.841h44.555c4.728 0 8.704-3.813 8.704-8.693 0-4.891-3.976-8.704-8.704-8.856zM230.65-32.109c-29.903 0-52.18 23.192-52.18 52.649 0 29.445 22.278 52.638 52.18 52.638 29.914 0 52.191-23.192 52.191-52.638 0-29.457-22.277-52.649-52.191-52.649zM230.65 56.401c-20.752 0-33.41-16.482-33.41-35.862s12.659-35.862 33.411-35.862c20.752 0 33.421 16.482 33.421 35.862s-12.669 35.862-33.422 35.862zM127.303 9.091h-29.151v-31.276c0-5.197-4.118-9.314-9.303-9.314-5.197 0-9.314 4.118-9.314 9.314v84.229c0 5.185 4.118 9.303 9.314 9.303h38.454c25.327 0 36.156-14.031 36.156-31.276s-10.828-30.981-36.156-30.981zM129.895 54.255h-31.744v-27.921h31.744c10.218 0 14.804 6.863 14.804 13.737 0 6.711-4.586 14.183-14.804 14.183z" />
<glyph unicode="&#xe606;" glyph-name="survey" d="M0 110.222h512v-9.481h-512v9.481zM124.823 467.807l-37.926-65.688-41.055 23.703 9.482 16.422 24.633-14.222 28.445 49.266 16.422-9.481zM161.185 442.074v18.963h284.445v-18.963h-284.445zM274.963 404.148h-113.778v18.963h113.778v-18.963zM124.823 344.548l-37.926-65.688-41.055 23.703 9.482 16.422 24.633-14.222 28.445 49.266 16.422-9.481zM161.185 318.815v18.963h284.445v-18.963h-284.445zM274.963 280.889h-113.778v18.963h113.778v-18.963zM123.306 161.507l-13.293-13.236-21.978 21.884-19.977-19.978-13.416 13.407 19.959 19.949-17.749 17.664 13.293 13.236 17.712-17.635 20.423 20.423 13.407-13.407-20.385-20.394 22.007-21.911zM161.185 195.555v18.963h284.445v-18.963h-284.445zM274.963 157.63h-113.778v18.963h113.778v-18.963zM512.019 46.933l-28.151-38.524v-31.735c0-4.522-3.461-8.24-7.974-8.24s-8.23 3.716-8.23 8.24v31.735l-28.16 38.524c-0.929 1.46-1.46 3.053-1.46 4.513 0 3.982 3.318 7.566 7.3 7.566 2.664 0 4.656-1.195 6.248-3.318l24.168-32.938 24.178 32.938c1.593 2.124 3.584 3.318 6.239 3.318 3.982 0 7.3-3.584 7.3-7.566 0-1.46-0.398-3.053-1.46-4.513zM421.651-15.493c4.248 0 7.699-3.318 7.699-7.566 0-4.257-3.452-7.443-7.699-7.443h-49.806c-4.513 0-8.24 3.584-8.24 8.106v72.249c0 4.513 3.726 8.097 8.24 8.097h47.815c4.248 0 7.699-3.186 7.699-7.433s-3.452-7.575-7.699-7.575h-39.851v-21.115h21.921c4.115 0 7.566-3.318 7.566-7.566s-3.452-7.443-7.566-7.443h-21.921v-22.31h41.842zM316.018-27.183c-1.195-2.655-3.982-4.38-6.902-4.38-3.063 0-5.717 1.593-6.912 4.38l-32.938 75.444c-0.398 0.929-0.663 1.991-0.663 3.053 0 3.982 3.328 7.699 7.443 7.699 2.921 0 5.841-1.593 7.036-4.38l25.904-61.753 26.159 61.753c1.195 2.655 3.849 4.38 6.77 4.38 4.257 0 7.575-3.452 7.575-7.566 0-1.062-0.265-2.124-0.663-3.186l-32.806-75.444zM258.067-23.457c0-4.125-3.186-8.106-8.097-8.106-3.584 0-5.85 1.593-7.178 4.38l-15.54 32.010h-26.69v-28.284c0-4.522-3.584-8.106-8.107-8.106-4.513 0-8.097 3.584-8.097 8.106v73.311c0 4.513 3.584 8.097 8.097 8.097h34.133c22.054 0 31.478-10.885 31.478-26.558 0-10.363-4.513-19.257-14.611-23.647l13.682-27.752c0.531-1.062 0.929-2.257 0.929-3.452zM228.855 43.075h-28.292v-24.301h28.292c8.893 0 12.876 6.505 12.876 12.487 0 5.841-3.982 11.814-12.876 11.814zM123.904-32.095c-23.638 0-37.85 14.478-37.85 37.319v45.558c0 4.513 3.584 8.23 8.097 8.23 4.522 0 8.106-3.716 8.106-8.23v-47.284c0-12.354 7.433-20.983 21.646-20.983s21.646 8.628 21.646 20.983v47.284c0 4.513 3.584 8.23 8.107 8.23 4.513 0 8.097-3.716 8.097-8.23v-45.558c0-22.841-14.213-37.319-37.85-37.319zM68.778-5.793c0-15.408-11.691-26.302-34.266-26.302-10.752 0-22.974 3.318-30.682 9.301-2.655 2.124-4.513 4.779-4.513 7.699 0 4.115 2.655 6.902 6.779 6.902 1.46 0 2.788-0.398 4.115-1.195 7.168-4.513 12.079-8.495 24.566-8.495 12.752 0 17.797 5.177 17.797 11.159 0 6.505-5.177 9.823-21.116 14.070-24.035 6.381-31.213 14.080-31.213 27.363 0 16.204 13.947 24.832 35.063 24.832 4.779 0 11.293-0.796 17.001-2.389 6.106-1.726 13.814-5.575 13.814-10.885 0-3.594-2.124-7.31-6.637-7.31-1.072 0-2.133 0.132-3.196 0.663-6.106 2.788-12.477 5.584-20.85 5.584-11.814 0-18.991-3.195-18.991-10.098 0-6.505 5.309-8.771 21.248-13.416 18.195-5.31 31.081-10.486 31.081-27.487z" />
<glyph unicode="&#xe608;" glyph-name="remove-user" d="M442.35 94.15h-165.55v41.35c0 0 165.55 0 165.55 0v-41.35c0 0 0 0 0 0zM256.15 94.15h-186.35v29.75c0 0-8.5 16.3 98.8 59.4 0 0 43.050 8.15 14.1 37.1-10.75 10.75-16.15 27-18.85 38.5-0.7-0.85-1.5-1.4-2.35-1.4-3.9 0-7.050 10-7.050 22.3s3.15 22.25 7.050 22.25v44.6c0 0 0 37.1 49.4 37.1 4.9 0 9.6 0.050 14.1 0.15 4.5-0.050 9.2-0.15 14.1-0.15 49.4 0 49.4-37.1 49.4-37.1v-44.6c3.9 0 7.050-10 7.050-22.25 0-12.3-3.15-22.3-7.050-22.3-0.85 0-1.65 0.55-2.35 1.4-2.7-11.5-8.1-27.75-18.85-38.5-28.95-28.95 14.1-37.1 14.1-37.1 14.2-5.75 26.25-10.95 36.7-15.7v-11.35h-62.1l0.15-62.1z" />
<glyph unicode="&#xe609;" glyph-name="user-list" d="M392.768 129.568v27.584h-27.616v27.616h82.848v-55.2h-55.232zM309.92 267.616h138.080v-55.232h-138.080v55.232zM309.92 350.464h138.080v-55.232h-138.080v55.232zM268.512 256.576c0 0 0 2.752 0 0-5.536-8.288-11.040-24.864-19.328-35.904-27.616-27.616 13.792-35.904 13.792-35.904 102.176-41.408 93.888-57.984 93.888-57.984v-30.368h-292.704v33.152c0 0-8.256 16.544 93.888 57.984 0 0 41.44 8.256 13.824 35.872-11.040 11.040-16.576 24.864-16.576 35.904h-2.752c-2.784 0-5.536 8.288-5.536 22.080 0 11.072 2.752 22.112 5.536 22.112v44.16c0 0 0 35.904 46.944 35.904 5.504 0 8.256 0 13.792 0s8.288 0 13.792 0c46.944 0 46.944-35.904 46.944-35.904v-44.16c2.784 0 5.536-8.288 5.536-22.112-2.752-13.792-8.288-24.832-11.040-24.832z" />
<glyph unicode="&#xe60a;" glyph-name="education" d="M390.4 192l-108.8 76.8c-3.2 12.8-12.8 22.4-25.6 22.4s-25.6-12.8-25.6-25.6c0-16 12.8-25.6 25.6-25.6 3.2 0 6.4 0 9.6 3.2l96-64-105.6-64-252.8 153.6 252.8 153.6 252.8-153.6-118.4-76.8zM339.2 124.8v-44.8l-83.2-54.4-140.8 89.6v44.8l140.8-86.4 83.2 51.2zM422.4 54.4h-25.6l-28.8-28.8v124.8l54.4 28.8v-124.8z" />
<glyph unicode="&#xe60b;" glyph-name="location" d="M256 16c0 0-160 166.4-160 256s70.4 160 160 160 160-70.4 160-160-160-256-160-256zM256 336c-35.2 0-64-28.8-64-64s28.8-64 64-64 64 28.8 64 64c0 35.2-28.8 64-64 64z" />
<glyph unicode="&#xe60c;" glyph-name="briefcase" d="M432 32h-352c-19.2 0-32 12.8-32 32v224c0 19.2 12.8 32 32 32h96v64c0 19.2 12.8 32 32 32h96c19.2 0 32-12.8 32-32v-64h96c19.2 0 32-12.8 32-32v-224c0-19.2-12.8-32-32-32zM304 384h-96v-64h96v64z" />
<glyph unicode="&#xe60d;" glyph-name="trash" horiz-adv-x="403" d="M297.217 309.179v-213.4h-192.060v213.4h-21.34v42.681h64.020v42.68h106.699v-42.68h64.019v-42.681h-21.339zM190.518 138.461h21.34v149.38h-21.339v-149.38zM147.838 138.461h21.34v149.38h-21.339v-149.38zM233.197 373.199h-64.019v-21.339h64.019v21.339zM254.538 287.841h-21.34v-149.38h21.34v149.38z" />
<glyph unicode="&#xe60e;" glyph-name="edit" d="M437.024 328.16l-24.992-24.992-77.344 77.408 24.96 24.992c14.24 14.24 37.344 14.24 51.584 0l25.792-25.792c14.24-14.272 14.24-37.376 0-51.616zM385.44 276.544l-187.552-187.68-77.408 77.344 187.616 187.744 77.344-77.408zM152.416 60.608l-88.32-28.224 28.192 88.352c-0.384 8.064 2.24 15.904 7.168 22.752l75.712-75.68c-6.848-4.96-14.688-7.616-22.752-7.2z" />
<glyph unicode="&#xe60f;" glyph-name="more-options" d="M385.28 153.12l-70.72 88.512h141.44l-70.72-88.512zM66.688 241.696h212.416v-35.392h-212.416v35.392zM66.688 312.512h212.416v-35.392h-212.416v35.392zM226.016 135.488h-159.328v35.392h159.328v-35.392z" />
<glyph unicode="&#xe610;" glyph-name="flag" d="M183.648 195.36c0 0-50.848 194.144-57.952 221.312 196.48 91.424 66.016-55.648 261.216 25.376 6.912-72.576 23.168-111.776 61.28-199.872-163.328-115.008-77.312 50.784-264.544-46.816zM139.168 32l-107.232 380.192 48.768 13.376 111.008-393.568h-52.544z" />
<glyph unicode="&#xe611;" glyph-name="reply" d="M441.216 75.232c-28.768 147.84-214.976 124-216.704 123.776v101.248c268.32 11.136 216.704-225.024 216.704-225.024zM224.352 199.008c0 0 0.16 0 0.16 0v-123.616l-165.536 175.456 165.536 162.016v-112.608c-0.032 0-0.096 0-0.16 0v-101.248z" />
<glyph unicode="&#xe800;" glyph-name="report" d="M0 256h128v-288h-128v288zM192 448h128v-480h-128v480zM384 352h128v-384h-128v384z" />
<glyph unicode="&#xe801;" glyph-name="search" d="M449.152 90.419l-96.743 96.743c14.592 23.987 22.989 52.096 22.989 82.227 0 87.45-75.801 163.251-163.277 163.251-87.45 0-158.362-70.912-158.362-158.361 0-87.475 75.776-163.277 163.251-163.277 29.082 0 56.32 7.885 79.744 21.581l97.255-97.28c9.549-9.523 24.96-9.523 34.457 0l24.141 24.115c9.498 9.523 6.041 21.504-3.456 31.002zM102.502 274.279c0 60.544 49.075 109.645 109.619 109.645 60.569 0 114.535-53.965 114.535-114.534s-49.075-109.645-109.645-109.645-114.509 53.965-114.509 114.535z" />
<glyph unicode="&#xe900;" glyph-name="gear-menu" d="M438.784 158.048l-73.024 94.112h146.080l-73.056-94.112zM254.912 159.168l7.776-9.6 0.256-0.256 19.712-24.256-5.728-5.888-5.696-5.6v-0.256l-0.256-0.256-23.072-23.2-33.152 29.056c-9.568-6.112-20.192-9.6-31.616-12.544l-3.616-42.4h-49.216l-0.768 9.888v15.2c0 2.656-0.256 4.512-1.824 5.6l-1.024 11.712c-11.424 2.944-22.048 5.344-31.872 11.488l-17.12-14.688v-0.256l-15.776-13.6-23.072 23.488-5.952 6.112-5.728 6.144 18.912 22.912c0 0 0 0 0 0.288l1.312 1.312 3.36 4.288 4.416 5.056v0.256c-2.848 5.088-5.44 10.176-7.52 15.488-2.080 5.6-3.872 11.456-5.44 17.088l-12.96 1.056-29.28 2.656v50.4l1.824 0.288 8.832 0.512v0.256l31.584 2.688v0.256c1.568 5.344 2.592 10.944 4.672 16 0 0.288 0.256 0.288 0.256 0.544s0.256 0.256 0.256 0.544c1.056 2.656 2.080 5.312 3.36 7.712 1.312 2.688 2.592 5.344 4.16 7.744l-16.32 19.744v0.256l-11.648 14.4 34.976 35.744 32.896-28.288c9.824 6.144 20.448 11.488 31.872 14.144l3.616 45.6h49.216l3.616-45.6c5.728-1.6 11.168-3.456 16.608-6.112 0.768-0.544 1.792-0.832 2.592-1.344 4.128-2.4 8.544-4.8 12.416-7.456l33.152 28.8 34.752-35.488v-0.256l-11.424-14.144-0.256-0.256-16.064-19.744c2.848-5.056 5.44-10.4 7.776-16 0-0.256 0.256-0.256 0.256-0.544 1.824-5.056 3.616-10.656 5.184-16v-0.256l42.752-3.744v-50.4l-42.752-3.712c-3.104-11.744-7.52-22.688-13.216-32.576zM154.912 278.656c-30.816 0-56.224-26.112-56.224-57.856 0-4.256 0.768-8.8 1.568-13.056v-0.288c5.952-25.6 27.968-44.256 54.656-44.256s48.96 18.944 54.656 44.544c0.8 4.256 1.568 8.8 1.568 13.056 0 31.744-25.12 57.856-56.224 57.856z" />
<glyph unicode="&#xe901;" glyph-name="add-fill" d="M288 256h96v-64h-96v-96h-64v96h-96v64h96v96h64v-96zM256 0c123.712 0 224 100.288 224 224s-100.288 224-224 224c-123.712 0-224-100.288-224-224s100.288-224 224-224z" />
<glyph unicode="&#xe902;" glyph-name="add" d="M288 256v160h-64v-160h-160v-64h160v-160h64v160h160v64h-160z" />
<glyph unicode="&#xe903;" glyph-name="bold" d="M112.96 415.256h123.008c55.073 0 92.816-2.748 117.696-18.42s37.32-40.596 37.32-74.774c0-23.198-5.445-42.235-16.336-57.11s-25.367-23.817-43.43-26.828v-2.656c24.615-5.489 42.367-15.76 53.258-30.813s16.336-35.063 16.336-60.031c0-35.417-12.794-63.041-38.383-82.875s-60.341-29.75-104.258-29.75h-145.297l0.085 383.256zM195.219 266.547h47.813c22.313 0 38.471 3.453 48.476 10.359s15.008 18.328 15.008 34.266c0 14.875-5.445 25.544-16.336 32.008s-28.112 9.695-51.664 9.695h-43.297v-86.328zM195.219 201.203v-101.203h53.656c22.667 0 39.401 4.339 50.203 13.015s16.203 21.958 16.203 39.844c0 32.229-23.020 48.344-69.063 48.344h-51z" />
<glyph unicode="&#xe904;" glyph-name="delete" d="M96 320h320l-28.453-256.079c-1.959-17.63-18.044-31.921-35.452-31.921h-192.19c-17.62 0-33.492 14.282-35.452 31.921l-28.453 256.079zM64 384c0 17.673 14.585 32 32.079 32h319.841c17.717 0 32.079-14.204 32.079-32v-32h-384v32zM192 432c0 8.837 6.882 16 15.696 16h96.609c8.668 0 15.695-7.422 15.695-16v-16h-128v16z" />
<glyph unicode="&#xe905;" glyph-name="duplicate" d="M416 352h0.147c17.592 0 31.853-14.582 31.853-31.852v-256.295c0-17.592-14.582-31.853-31.853-31.853h-256.295c-17.592 0-31.852 14.582-31.852 31.853v0.147h288v288zM64 384.147c0 17.592 14.582 31.853 31.852 31.853h256.295c17.592 0 31.853-14.582 31.853-31.852v-256.295c0-17.592-14.582-31.853-31.853-31.853h-256.295c-17.592 0-31.852 14.582-31.852 31.853v256.295z" />
<glyph unicode="&#xe906;" glyph-name="folder-add" d="M288 224v96h-64v-96h-96v-64h96v-96h64v96h96v64h-96zM0 384h479.972c17.688 0 32.028-14.584 32.028-32.079v-319.841c0-17.717-14.228-32.079-32.028-32.079h-447.944c-17.689 0-32.028 14.584-32.028 32.079v351.921zM0 448h128l32-64h-160v64z" />
<glyph unicode="&#xe907;" glyph-name="folder" d="M0 384h479.972c17.688 0 32.028-14.235 32.028-31.858v-288.283c0-17.595-14.228-31.858-32.028-31.858h-447.944c-17.689 0-32.028 14.235-32.028 31.858v320.142zM0 448h128l32-64h-160v64z" />
<glyph unicode="&#xe908;" glyph-name="hint" d="M256 0c123.712 0 224 100.288 224 224s-100.288 224-224 224c-123.712 0-224-100.288-224-224s100.288-224 224-224zM224 352h64v-64h-64v64zM224 256h64v-128h-64v128z" />
<glyph unicode="&#xe909;" glyph-name="image" d="M448 287.962v64.038h-384v-256l96.532 96.072 95.994-95.832 191.474 191.721zM0 383.921c0 17.717 14.228 32.079 32.028 32.079h447.944c17.688 0 32.028-14.584 32.028-32.079v-319.841c0-17.717-14.228-32.079-32.028-32.079h-447.944c-17.689 0-32.028 14.584-32.028 32.079v319.841zM144 224c26.51 0 48 21.49 48 48s-21.49 48-48 48c-26.51 0-48-21.49-48-48s21.49-48 48-48z" />
<glyph unicode="&#xe90a;" glyph-name="italic" d="M174.078 32l80.838 383.373h81.016l-80.838-383.373z" />
<glyph unicode="&#xe90b;" glyph-name="link" d="M256 95.988c-26.741-20.086-59.981-31.988-96-31.988-88.365 0-160 71.635-160 160s71.635 160 160 160c36.019 0 69.259-11.902 96-31.988 26.741 20.086 59.981 31.988 96 31.988 88.365 0 160-71.635 160-160s-71.635-160-160-160c-36.019 0-69.259 11.902-96 31.988zM213.316 144.154c-13.559 23.499-21.316 50.767-21.316 79.846s7.757 56.347 21.316 79.846c-15.251 10.204-33.589 16.154-53.316 16.154-53.019 0-96-42.981-96-96s42.981-96 96-96c19.727 0 38.065 5.95 53.316 16.154zM352 128c53.019 0 96 42.981 96 96s-42.981 96-96 96c-53.019 0-96-42.981-96-96s42.981-96 96-96z" />
<glyph unicode="&#xe90c;" glyph-name="move" d="M288 288c0 0-256-37.334-256-224 0 0 94.969 112 256 64v160zM288 384.048c0 17.647 10.503 22.199 23.548 10.086l188.724-175.244c6.477-6.014 6.628-15.625 0-21.781l-188.724-175.243c-13.005-12.077-23.548-7.547-23.548 10.086v352.096z" />
<glyph unicode="&#xe90d;" glyph-name="randomize" d="M193.255 125.49l2.019-4.039c15.984-31.969 57.38-57.452 92.726-57.452h64v64h-80.147c-8.949 0-19.097 6.49-23.101 14.497l-15.219 30.437-40.278-47.444zM118.731 274.539l-15.482 30.964c-4.004 8.007-14.153 14.497-23.101 14.497h-80.147v64h64c35.346 0 76.741-25.482 92.725-57.452l2.707-5.413-40.702-46.597zM379.505 431.497c-15.19 9.114-27.505 2.072-27.505-15.202v-128.59c0-17.51 12.555-24.172 27.505-15.202l104.99 62.994c15.19 9.115 14.95 24.036 0 33.006l-104.99 62.994zM379.505 175.497c-15.19 9.115-27.505 2.072-27.505-15.202v-128.59c0-17.51 12.555-24.172 27.505-15.202l104.99 62.994c15.19 9.115 14.95 24.036 0 33.006l-104.99 62.994zM352 384h-31.966c-35.365 0-81.072-22.719-102.426-51.19l-134.496-179.327c-10.555-14.074-33.316-25.482-51.111-25.482h-32v-64h32.151c35.263 0 80.888 22.719 102.243 51.19l134.496 179.327c10.555 14.074 33.315 25.482 51.111 25.482h32v64z" />
<glyph unicode="&#xe90e;" glyph-name="remove" d="M301.255 224l135.745 135.745c12.587 12.587 12.517 32.778 0.019 45.274-12.584 12.584-32.767 12.488-45.274-0.019l-135.745-135.745-135.745 135.745c-12.587 12.587-32.778 12.517-45.275 0.019-12.584-12.584-12.488-32.767 0.019-45.274l135.745-135.745-135.745-135.745c-12.587-12.587-12.517-32.778-0.019-45.274 12.584-12.584 32.767-12.488 45.275 0.019l135.745 135.745 135.745-135.745c12.587-12.587 32.778-12.517 45.274-0.019 12.584 12.584 12.488 32.767-0.019 45.274l-135.745 135.745z" />
<glyph unicode="&#xe90f;" glyph-name="rename" d="M448 352v64h-64c-11.657 0-22.587-3.139-32-8.618-9.413 5.478-20.343 8.618-32 8.618h-64v-64h32.079c17.63 0 31.921-14.497 31.921-31.905v-192.19c0-17.62-14.282-31.905-31.921-31.905h-32.079v-64h64c11.693 0 22.611 3.106 32 8.535 9.389-5.43 20.307-8.535 32-8.535h64v64h-32.034c-17.801 0-31.966 14.284-31.966 31.905v192.19c0 17.408 14.312 31.905 31.966 31.905h32.034zM32 320v-192h256v192h-256z" />
<glyph unicode="&#xe910;" glyph-name="reset" d="M320 32c88.365 0 160 71.635 160 160s-71.635 160-160 160h-160v-64h160c53.019 0 96-42.981 96-96s-42.981-96-96-96h-160v-64h160zM135 428c13.807 11.046 25 5.503 25-11.905v-192.19c0-17.62-10.998-23.107-25-11.905l-110 88c-13.807 11.046-14.002 28.798 0 40l110 88z" />
<glyph unicode="&#xe911;" glyph-name="settings" d="M117.144 144.453c-6.711 11.689-11.988 24.306-15.592 37.611l-69.552 9.936v64l69.552 9.936c3.604 13.305 8.881 25.922 15.592 37.611l-42.163 56.218 45.255 45.255 56.218-42.163c11.689 6.711 24.306 11.988 37.611 15.592l9.936 69.552h64l9.936-69.552c13.305-3.604 25.922-8.881 37.611-15.592l56.218 42.163 45.255-45.255-42.163-56.218c6.711-11.689 11.988-24.306 15.592-37.611l69.552-9.936v-64l-69.552-9.936c-3.604-13.305-8.881-25.922-15.592-37.611l42.163-56.217-45.255-45.255-56.217 42.163c-11.689-6.711-24.306-11.988-37.611-15.592l-9.936-69.552h-64l-9.936 69.552c-13.305 3.604-25.922 8.881-37.611 15.592l-56.218-42.163-45.255 45.255 42.163 56.217zM256 144c44.183 0 80 35.817 80 80s-35.817 80-80 80c-44.183 0-80-35.817-80-80s35.817-80 80-80z" />
<glyph unicode="&#xe912;" glyph-name="shareto" d="M256 416h-223.972c-17.799 0-32.028-14.363-32.028-32.079v-319.841c0-17.495 14.339-32.079 32.028-32.079h447.944c17.8 0 32.028 14.363 32.028 32.079v149.594l-64-57.115v-60.558h-384v256h128l64 64zM319.945 352c0 0-191.945-32-191.945-192 0 0 71.207 96 191.945 64v128zM320 431.175c0 17.553 10.873 22.397 24.317 10.792l143.366-123.755c13.43-11.593 13.444-30.376 0-41.981l-143.366-123.755c-13.43-11.593-24.317-6.748-24.317 10.793v267.908z" />
<glyph unicode="&#xe913;" glyph-name="star-filled" d="M256 121.024l-86.496-61.915c-28.688-20.535-43.213-9.652-32.633 23.709l32.156 101.395-85.614 63.13c-28.395 20.938-22.534 38.115 12.465 38.362l106.369 0.75 33.584 100.932c11.138 33.476 29.286 33.209 40.337 0l33.584-100.932 106.37-0.75c35.279-0.249 40.633-17.591 12.464-38.362l-85.613-63.13 32.156-101.395c10.665-33.63-4.173-44.081-32.633-23.709l-86.496 61.915z" />
<glyph unicode="&#xe914;" glyph-name="star-outline" d="M237.374 147.045v0l18.626 13.333 105.122-75.248c4.036-2.889 6.952-4.389 8.034-4.67-3.276 0.852-8.696 0.306-14.363-3.772-5.717-4.115-7.984-9.177-8.2-12.635 0.067 1.086-0.455 4.325-1.967 9.092l-39.080 123.23 104.049 76.724c3.995 2.946 6.322 5.256 6.924 6.198-1.823-2.852-2.978-8.176-0.851-14.826 2.146-6.709 6.261-10.429 9.483-11.703-1.012 0.4-4.253 0.904-9.255 0.939l-129.275 0.912-40.815 122.666c-1.567 4.71-3.045 7.637-3.755 8.5 2.149-2.615 6.856-5.359 13.838-5.391 7.044-0.032 11.854 2.732 14.061 5.402-0.692-0.838-2.173-3.766-3.752-8.512l-40.815-122.666-129.275-0.912c-4.964-0.035-8.204-0.536-9.245-0.945 3.151 1.237 7.215 4.864 9.403 11.495 2.207 6.689 1.065 12.117-0.793 15.041 0.584-0.918 2.91-3.231 6.936-6.2l104.049-76.724-39.081-123.23c-1.5-4.732-2.025-7.969-1.958-9.084-0.202 3.379-2.397 8.365-8.026 12.495-5.68 4.166-11.196 4.757-14.55 3.894 1.053 0.271 3.972 1.769 8.040 4.68l86.496 61.915zM256 121.024l-86.496-61.915c-28.688-20.535-43.213-9.652-32.633 23.709l32.156 101.395-85.614 63.13c-28.395 20.938-22.534 38.115 12.465 38.362l106.369 0.75 33.584 100.932c11.138 33.476 29.286 33.209 40.337 0l33.584-100.932 106.37-0.75c35.279-0.249 40.633-17.591 12.464-38.362l-85.613-63.13 32.156-101.395c10.665-33.63-4.173-44.081-32.633-23.709l-86.496 61.915z" />
<glyph unicode="&#xe915;" glyph-name="underline" d="M380.578 416.614v-170.395c0-38.865-11.002-68.961-33.008-90.289s-53.726-31.992-95.164-31.992c-40.49 0-71.601 10.36-93.336 31.078s-32.602 50.51-32.602 89.375v172.223h80.64v-165.927c0-20.989 3.927-36.224 11.781-45.703s19.432-14.219 34.734-14.219c16.386 0 28.268 4.705 35.648 14.117s11.070 24.815 11.070 46.211v165.52h80.235zM64 96h384v-64h-384v64z" />
<glyph unicode="&#xe916;" glyph-name="unlink" d="M325.113 154.217v0.317h128v-64h-64.317v-64.317h-64v128h0.317zM188.703 288.719h0.317v128h-64v-64.317h-64.317v-64h128v0.317zM227.065 241.744c-35.665 17-79.738 10.772-109.299-18.79l-45.179-45.18c-37.621-37.621-37.528-98.312-0.037-135.802 37.414-37.414 98.291-37.474 135.802 0.038l45.179 45.18c29.66 29.659 35.879 73.657 18.812 109.322l-109.228-109.228c-12.528-12.527-32.727-12.64-45.311-0.056-12.497 12.497-12.314 32.94 0.056 45.311l109.205 109.206zM234.793 249.473c-17.066 35.664-10.847 79.662 18.812 109.322l45.18 45.18c37.511 37.511 98.388 37.451 135.802 0.037 37.49-37.49 37.584-98.181-0.038-135.802l-45.18-45.18c-29.562-29.562-73.635-35.789-109.3-18.789l109.206 109.205c12.37 12.37 12.553 32.814 0.056 45.311-12.584 12.584-32.783 12.471-45.311-0.056l-109.228-109.228z" />
<glyph unicode="&#xe917;" glyph-name="upload" d="M96 96v128h-64v-192h448v192h-64v-128h-320zM148 345c-11.046-13.807-5.503-25 11.905-25h192.19c17.62 0 23.107 10.998 11.905 25l-88 110c-11.046 13.807-28.798 14.002-40 0l-88-110zM224 160h64v160h-64v-160z" />
<glyph unicode="&#xe918;" glyph-name="whiteboard" d="M48.394 39.256c3.706-2.070 10.191-5.477 19.027-9.776 14.543-7.075 30.553-14.135 47.615-20.732 37.948-14.673 75.619-24.99 111.552-28.976 97.369-10.801 170.116 27 193.679 124.836 25.558 106.115-32.12 218.419-127.223 279.539-100.058 64.305-206.537 46.32-238.82-64.76-34.074-117.244 95.902-189.519 236.069-168.844 152.154 22.444 233.389 140.559 165.077 309.454l-59.331-23.998c51.726-127.887-1.582-205.399-115.085-222.142-101.633-14.991-182.103 29.755-165.273 87.668 18.347 63.132 74.542 72.624 142.761 28.781 73.886-47.486 118.156-133.684 99.604-210.714-15.037-62.433-56.129-83.786-124.402-76.212-29.75 3.3-62.325 12.221-95.528 25.060-15.296 5.914-29.686 12.26-42.696 18.589-7.696 3.744-13.12 6.593-15.813 8.098l-31.213-55.873z" />
<glyph unicode="&#xe919;" glyph-name="movedown" d="M110.461 146.498c-24.957 25.13-16.522 45.502 18.648 45.502h253.727c35.257 0 43.428-20.548 18.64-45.502l-122.894-123.72c-12.497-12.581-32.879-12.456-45.25 0l-122.873 123.72zM224 416h64v-224h-64v224z" />
<glyph unicode="&#xe91a;" glyph-name="moveup" d="M110.461 269.501c-24.957-25.129-16.522-45.501 18.648-45.501h253.727c35.257 0 43.428 20.548 18.64 45.501l-122.894 123.72c-12.497 12.581-32.879 12.456-45.25 0l-122.873-123.72zM224 0h64v224h-64v-224z" />
<glyph unicode="&#xe91b;" glyph-name="gripper" d="M96 448h64v-64h-64v64zM224 352h64v-64h-64v64zM224 160h64v-64h-64v64zM352 448h64v-64h-64v64zM96 256h64v-64h-64v64zM352 256h64v-64h-64v64zM96 64h64v-64h-64v64zM352 64h64v-64h-64v64z" />
<glyph unicode="&#xe91c;" glyph-name="chevrondown-25" d="M272.665 125.415l-14.481-14.481-217.223 217.223 28.963 28.963 188.26-188.26 188.26 188.26 28.963-28.963-202.742-202.742z" />
<glyph unicode="&#xe91d;" glyph-name="chevronup-25" d="M272.665 342.639l-14.481 14.481-217.223-217.223 28.963-28.963 188.26 188.26 188.26-188.26 28.963 28.963-202.742 202.742z" />
<glyph unicode="&#xe91e;" glyph-name="movetobottom" d="M148 231c-11.046 13.807-5.503 25 11.905 25h192.19c17.62 0 23.107-10.998 11.905-25l-88-110c-11.046-13.807-28.798-14.002-40 0l-88 110zM224 416h64v-160h-64v160zM64 96h384v-64h-384v64z" />
<glyph unicode="&#xe91f;" glyph-name="movetotop" d="M148 217c-11.046-13.807-5.503-25 11.905-25h192.19c17.62 0 23.107 10.998 11.905 25l-88 110c-11.046 13.807-28.798 14.002-40 0l-88-110zM224 32h64v160h-64v-160zM64 352h384v64h-384v-64z" />
<glyph unicode="&#xe920;" glyph-name="hide" d="M192.44 73.146c20.149-5.952 41.482-9.146 63.56-9.146 101.472 0 187.187 67.472 214.724 160-9.142 30.719-24.697 58.675-45.111 82.319l55.053 55.053-22.627 22.627-362.038-362.038 22.627-22.627 73.812 73.812zM351.642 232.349c0.237-2.751 0.358-5.536 0.358-8.349 0-53.019-42.981-96-96-96-2.813 0-5.597 0.121-8.349 0.358l103.99 103.99zM134.517 99.772c-44.309 28.656-77.855 72.531-93.241 124.228 27.538 92.528 113.251 160 214.724 160 46.198 0 89.13-13.986 124.792-37.953l-55.551-55.551c-17.469 18.185-42.033 29.504-69.241 29.504-53.019 0-96-42.981-96-96 0-27.208 11.319-51.772 29.504-69.241l-54.987-54.987zM302.606 267.861c-11.672 12.398-28.236 20.139-46.606 20.139-35.346 0-64-28.654-64-64 0-18.372 7.74-34.935 20.138-46.606l90.468 90.469z" />
<glyph unicode="&#xe921;" glyph-name="view" d="M470.724 224c-27.538-92.528-113.251-160-214.724-160s-187.186 67.472-214.724 160c27.537 92.528 113.251 160 214.724 160s187.187-67.472 214.724-160zM256 128c53.019 0 96 42.981 96 96s-42.981 96-96 96c-53.019 0-96-42.981-96-96s42.981-96 96-96zM256 160c35.346 0 64 28.654 64 64s-28.654 64-64 64c-35.346 0-64-28.654-64-64s28.654-64 64-64z" />
<glyph unicode="&#xe922;" glyph-name="grid" d="M64 416h160v-160h-160v160zM288 416h160v-160h-160v160zM64 192h160v-160h-160v160zM288 192h160v-160h-160v160z" />
<glyph unicode="&#xe923;" glyph-name="list" d="M64 416h384v-64h-384v64zM64 256h384v-64h-384v64zM64 96h384v-64h-384v64z" />
<glyph unicode="&#xe924;" glyph-name="goto" d="M336.688 272.688c-23.693 47.042-72.422 79.313-128.688 79.313-79.529 0-144-64.471-144-144 0-74.121 56.001-135.162 128-143.121v8.14c-22.4 8.647-42.956 27.274-55.534 53.063-23.242 47.654-10.445 101.716 28.583 120.751 35.586 17.357 80.692-0.4 105.991-39.791l-56.33-56.33c-12.504-12.504-8.342-22.711 9.382-22.711h159.813c18.082 0 32.094 14.369 32.094 32.094v159.813c0 18.082-10.168 21.925-22.711 9.382l-56.601-56.601z" />
<glyph unicode="&#xe925;" glyph-name="hyperlink" d="M323.882 201.373l0.043-0.043c25.148-25.148 65.533-24.89 90.601 0.177l67.615 67.615c25.329 25.329 25.147 65.631 0.177 90.601l-90.596 90.595c-25.148 25.148-65.533 24.891-90.601-0.177l-67.615-67.615c-25.328-25.329-25.147-65.631-0.177-90.601l0.043-0.043 67.689 67.689c25.1 25.1 65.535 25.361 90.702 0.193 24.993-24.994 24.846-65.663-0.193-90.702l-67.689-67.689zM188.118 246.627l-0.043 0.043c-25.148 25.148-65.533 24.891-90.6-0.177l-67.615-67.614c-25.328-25.329-25.146-65.631-0.177-90.601l90.595-90.596c25.148-25.148 65.533-24.89 90.6 0.177l67.615 67.615c25.329 25.329 25.147 65.631 0.177 90.601l-0.043 0.043-67.689-67.689c-25.1-25.1-65.535-25.361-90.703-0.193-24.993 24.993-24.846 65.663 0.193 90.702l67.689 67.689zM278.836 292.091c12.382 12.381 32.462 12.375 45.046-0.208 12.497-12.497 12.423-32.832 0.209-45.046l-90.927-90.927c-12.381-12.382-32.463-12.375-45.046 0.209-12.497 12.497-12.423 32.832-0.208 45.046l90.927 90.927z" />
<glyph unicode="&#xe926;" glyph-name="createlarge" d="M310.021 185.994l113.266 113.266 45.222-45.222 22.627 22.627-45.222 45.222 15.028 15.028c8.331 8.331 21.839 8.331 30.17 0l15.085-15.085c8.331-8.331 8.331-21.838 0-30.17l-181.020-181.020-67.882-22.627 22.627 67.882 7.471 7.471 45.222-45.222 22.627 22.627-45.222 45.222zM405.334 325.804l-42.666-42.667v100.863h-234.667v-341.334h234.667v59.452l42.666 42.666v-144.785h-320v426.666h320v-100.862z" />
<glyph unicode="&#xe927;" glyph-name="launch" d="M306.745 320h-114.745c-17.673 0-32 14.327-32 32s14.327 32 32 32h192c17.673 0 32-14.327 32-32v-192c0-17.673-14.327-32-32-32s-32 14.327-32 32v114.745l-186.51-186.51c-12.497-12.497-32.758-12.497-45.255 0s-12.497 32.758 0 45.255l186.51 186.51z" />
<glyph unicode="&#xf101;" glyph-name="alert" d="M466.791 63.365l0.031 0.021-0.712 1.229c-0.348 0.656-0.686 1.316-1.106 1.92l-192.973 334.249c-3.128 5.678-9.093 9.575-16.041 9.575-7.526 0-13.982-4.541-16.819-11.024l-0.020 0.010-191.472-331.653 0.184-0.108c-2.586-3.164-4.199-7.152-4.199-11.556 0-10.148 8.228-18.381 18.37-18.381v0h387.927c10.148 0 18.375 8.228 18.375 18.375 0 2.616-0.563 5.089-1.546 7.342zM256.179 72.361c-14.715 0-26.629 11.556-26.629 26.265 0 14.715 11.909 26.624 26.629 26.624 14.351 0 26.265-11.904 26.265-26.624 0.005-14.71-11.914-26.265-26.265-26.265zM282.445 304.64v-144.891h-0.010c0-0.026 0.010-0.051 0.010-0.082 0-6.006-4.864-10.721-10.721-10.721-0.026 0-0.046 0.005-0.072 0.005v-0.005h-31.196c-6.011 0-10.87 4.716-10.87 10.721 0 0.026 0.010 0.051 0.010 0.082h-0.010v144.502c-0.005 0.133-0.041 0.261-0.041 0.394 0 5.719 4.429 10.219 9.907 10.639v0.082l32.195-0.005c5.883-0.036 10.619-4.593 10.767-10.44h0.026v-0.281c0.010 0 0.005 0 0.005 0z" />
</font>
</defs>
</svg>
